PathFileType  4	(X/Y/Z) C:\Users\antoi\Documents\MyRepositories\mobilecap\ResultsAnalysis
DataRate	CameraRate	NumFrames	NumMarkers	Units	OrigDataRate	OrigDataStartFrame	OrigNumFrames
100.0	100.0	4	51	mm	100.0	891	1424
Frame#	Time	r_knee			r_shank_antsup			r_ankle			r_calc			r_5meta			r_toe			L_knee			L_shank_antsup			L_ankle			L_calc			L_5meta			L_toe			r_sh2			r_sh3			r_sh4			L_sh2			L_sh3			r_thigh1			r_thigh2			r_thigh3			r_thigh4			r_thigh5			L_thigh1			L_thigh2			L_thigh3			L_thigh4			r.ASIS			r.PSIS			L.ASIS			L.PSIS			C7			R_Shoulder			L_Shoulder			R_Sternum			L_Sternum			R_humerus			R_elbow_med			R_elbow_lat			R_forearm			R_wrist_radius			R_wrist_ulna			L_humerus			L_elbow_med			L_elbow_lat			L_forearm			L_wrist_radius			L_wrist_ulna			R_HJC			L_HJC			R_HJC_reg			L_HJC_reg			
		X1	Y1	Z1	X2	Y2	Z2	X3	Y3	Z3	X4	Y4	Z4	X5	Y5	Z5	X6	Y6	Z6	X7	Y7	Z7	X8	Y8	Z8	X9	Y9	Z9	X10	Y10	Z10	X11	Y11	Z11	X12	Y12	Z12	X13	Y13	Z13	X14	Y14	Z14	X15	Y15	Z15	X16	Y16	Z16	X17	Y17	Z17	X18	Y18	Z18	X19	Y19	Z19	X20	Y20	Z20	X21	Y21	Z21	X22	Y22	Z22	X23	Y23	Z23	X24	Y24	Z24	X25	Y25	Z25	X26	Y26	Z26	X27	Y27	Z27	X28	Y28	Z28	X29	Y29	Z29	X30	Y30	Z30	X31	Y31	Z31	X32	Y32	Z32	X33	Y33	Z33	X34	Y34	Z34	X35	Y35	Z35	X36	Y36	Z36	X37	Y37	Z37	X38	Y38	Z38	X39	Y39	Z39	X40	Y40	Z40	X41	Y41	Z41	X42	Y42	Z42	X43	Y43	Z43	X44	Y44	Z44	X45	Y45	Z45	X46	Y46	Z46	X47	Y47	Z47	X48	Y48	Z48	X49	Y49	Z49	X50	Y50	Z50	X51	Y51	Z51	

891	8.90000000	-222.76301	467.89418	-432.48870	-168.83557	400.18773	-435.36895	-330.03308	99.12026	-430.06552	-398.21385	61.46434	-471.23002	-235.53790	47.50395	-380.97485	-182.90196	73.73326	-430.78586	-233.96013	463.28112	-924.85178	-186.45332	380.97952	-937.54081	-324.61466	99.54392	-906.82219	-391.78912	62.42966	-860.11140	-222.88162	43.12232	-955.67064	-177.95011	67.24009	-904.85196	-224.98231	300.30022	-412.14707	-240.45072	434.63057	-416.00394	-291.29439	334.63745	-409.95350	-271.25932	410.42899	-933.14643	-303.09137	291.53388	-938.19627	-524.33730	557.69326	-486.77096	-415.17095	545.54058	-467.51712	-404.27072	488.48599	-431.11193	-542.03750	448.96109	-461.64858	-425.60707	436.70176	-442.95428	-498.82158	514.10221	-915.69937	-362.21559	515.95214	-922.87342	-498.33779	402.79585	-881.62429	-358.73959	410.39636	-901.26296	-522.74194	580.23960	-560.14661	-711.57821	594.49180	-633.64807	-528.94353	573.31058	-810.90719	-722.23025	597.32420	-726.30269	-629.45723	1007.37320	-693.94106	-544.77706	991.33813	-525.52125	-557.06740	983.98825	-864.37615	-487.83323	968.30125	-673.74337	-484.07342	965.22451	-711.84432	-534.75543	879.20908	-439.18056	-528.42423	656.90966	-441.36172	-509.83803	691.42883	-372.64660	-391.56658	739.49415	-428.71080	-285.47476	776.94608	-496.57457	-265.69851	748.15617	-488.39942	-534.78258	880.99410	-934.63060	-504.57365	642.81858	-912.30568	-494.61805	684.24166	-987.38351	-408.41798	733.89481	-942.29218	-282.08864	783.94957	-878.44011	-263.30596	757.30591	-890.16876	-586.20247	491.25857	-580.92582	-594.87965	490.66871	-787.21277	-576.78833	491.61763	-591.53039	-595.69588	496.64545	-755.98652	
892	8.91000000	-222.97025	467.91421	-432.40872	-169.08985	400.24117	-435.25263	-330.17545	99.03940	-430.13769	-398.22007	61.48503	-471.16168	-235.62985	47.86270	-380.67934	-182.95828	73.92193	-430.88815	-233.95357	463.22377	-924.68207	-186.52095	381.01727	-937.49359	-324.67372	99.52009	-906.79280	-391.85682	62.44119	-860.17148	-222.92246	43.09535	-955.50489	-177.98696	67.36707	-904.86487	-225.35973	300.58013	-411.89145	-240.80652	434.92007	-415.92949	-291.49766	334.38402	-409.95553	-271.29811	410.43739	-932.96462	-303.26829	291.31139	-937.68693	-524.38252	557.79953	-486.53439	-414.32723	545.50564	-467.32496	-404.43404	488.49406	-430.98179	-542.21510	449.09468	-461.54448	-425.78117	436.82256	-442.70115	-498.24640	513.74726	-914.56806	-362.14746	515.90317	-922.74695	-498.34955	402.79681	-881.63890	-358.71507	410.38291	-901.19899	-521.97513	579.52526	-560.12659	-710.51606	595.16068	-633.90685	-527.66121	573.06772	-809.51519	-720.97017	598.12181	-726.35007	-623.22090	1007.13268	-693.60396	-538.29874	990.56392	-525.24176	-550.14708	983.59027	-863.96939	-481.76762	967.01249	-673.46602	-478.19556	963.74592	-711.15843	-528.56028	878.68458	-438.85954	-524.30834	656.69869	-439.56391	-504.12364	691.85843	-371.45140	-385.43341	738.90432	-428.39507	-279.34526	776.17980	-496.54468	-259.59278	747.51465	-488.16181	-527.72658	880.62470	-934.14599	-497.69524	642.09852	-912.52895	-486.76082	684.10712	-986.87768	-401.04078	734.03879	-941.28505	-275.20843	784.31499	-876.36621	-256.21883	757.81206	-888.19194	-586.06700	491.02750	-580.65967	-594.04585	490.76916	-786.97585	-576.53317	491.87468	-591.41304	-595.03128	497.11430	-754.98077	
893	8.92000000	-223.17668	467.90734	-432.32480	-169.33844	400.24962	-435.21524	-330.35424	98.90999	-430.27825	-398.24504	61.50244	-471.05796	-235.69198	48.15239	-380.49265	-183.03194	74.14518	-430.99588	-233.94818	463.11233	-924.50984	-186.56333	381.03051	-937.45849	-324.75882	99.50639	-906.72804	-391.94437	62.45186	-860.25014	-222.96468	43.19646	-955.44066	-178.05257	67.54957	-904.89908	-225.78807	300.80997	-411.73953	-240.97046	434.85232	-416.03281	-291.62160	333.98894	-409.90535	-271.34414	410.47559	-932.76534	-303.41846	291.22939	-937.27780	-524.39526	557.91665	-486.34249	-414.33989	545.69088	-467.06177	-404.58318	488.54688	-430.87158	-542.37741	449.26218	-461.44806	-426.02773	436.98212	-442.42635	-498.63978	514.39180	-915.48643	-362.06668	515.83994	-922.61327	-498.37196	402.81671	-881.65931	-358.70210	410.40565	-901.17980	-521.14827	578.82416	-559.91576	-709.31766	595.89629	-634.11596	-526.39727	572.42216	-808.65007	-719.66195	599.03065	-726.38506	-616.76221	1006.79429	-693.18638	-531.45400	989.74882	-524.97569	-542.79709	983.05882	-863.45695	-475.61439	965.64770	-673.35335	-472.20361	962.10060	-710.28736	-521.96697	878.17254	-438.54196	-521.84138	657.99557	-436.02524	-497.47135	692.06595	-370.30740	-378.64049	738.52931	-428.01289	-272.63376	775.67738	-496.46176	-252.86708	747.10195	-487.88134	-520.26369	880.20315	-933.47537	-489.37150	642.01289	-912.12380	-478.21964	684.06896	-986.53376	-393.07699	734.33975	-940.29170	-267.75489	784.94347	-874.13606	-248.58515	758.71847	-886.33764	-585.94108	490.83581	-580.36193	-593.37956	490.64096	-786.69938	-576.16428	491.67888	-591.22191	-594.45388	497.22102	-754.36127	
894	8.93000000	-223.40262	467.80575	-432.29559	-169.55012	400.23960	-435.18134	-330.51351	98.85558	-430.37947	-398.31984	61.47853	-471.00421	-235.72875	48.26580	-380.57616	-183.11900	74.38727	-431.11595	-233.94060	463.03986	-924.34780	-186.60889	381.02113	-937.35698	-324.88908	99.49935	-906.60131	-391.99999	62.34467	-860.25943	-223.01354	43.36733	-955.44786	-178.13717	67.75443	-904.84155	-226.16170	300.80605	-411.72140	-241.03768	434.75463	-416.10318	-291.64945	334.09162	-409.93554	-271.38728	410.52389	-932.53692	-303.51649	291.37693	-937.10125	-524.41299	558.03132	-486.23224	-414.59151	545.81118	-466.88127	-404.69305	488.62046	-430.69246	-542.53044	449.48197	-461.27543	-426.29065	437.11343	-442.20127	-499.40613	515.56245	-917.12572	-362.01002	515.77959	-922.46913	-498.41709	402.84875	-881.67590	-358.71142	410.46664	-901.16763	-520.64195	578.85686	-558.87164	-707.99768	596.86132	-634.16909	-525.07293	572.29241	-808.56244	-718.23003	600.11366	-726.25751	-610.06158	1006.41564	-692.83704	-524.30859	988.87298	-524.75266	-535.00736	982.48681	-862.98275	-469.31269	964.07720	-673.27866	-465.80938	960.43760	-709.54290	-514.98730	877.77606	-438.10550	-516.50128	659.74069	-432.69937	-489.78745	691.94524	-369.36673	-371.12583	738.42711	-427.54273	-265.32435	775.44903	-496.33781	-245.46166	746.95689	-487.62066	-512.28797	879.83980	-932.83305	-480.11409	642.15637	-911.82384	-468.92673	684.16455	-986.25971	-384.46503	734.81388	-939.33467	-259.76096	785.86416	-872.00131	-240.37183	759.98738	-884.51110	-585.64945	491.18053	-579.91876	-592.48886	490.92576	-786.27520	-575.63669	491.50505	-590.47357	-593.83321	497.28948	-754.24409	
